<svg xmlns="http://www.w3.org/2000/svg" viewBox="0 0 1200 700" role="img" aria-labelledby="title desc">
  <title id="title">Community relay run</title>
  <desc id="desc">Illustration of adults and children running together in a relay event.</desc>
  <defs>
    <linearGradient id="bg" x1="0" x2="0" y1="0" y2="1">
      <stop offset="0%" stop-color="#fde68a"/>
      <stop offset="55%" stop-color="#bbf7d0"/>
      <stop offset="100%" stop-color="#86efac"/>
    </linearGradient>
  </defs>
  <rect width="1200" height="700" fill="url(#bg)"/>
  <circle cx="980" cy="120" r="58" fill="#f59e0b" opacity="0.9"/>
  <path d="M0 520 C220 470 360 560 560 520 C760 480 920 560 1200 500 L1200 700 L0 700 Z" fill="#16a34a"/>
  <path d="M0 575 C200 530 340 600 560 575 C820 545 980 620 1200 560 L1200 700 L0 700 Z" fill="#15803d" opacity="0.85"/>

  <g transform="translate(220 470)">
    <circle cx="28" cy="-52" r="16" fill="#fb7185"/>
    <path d="M12 -34 L44 -20 L60 -42" stroke="#fb7185" stroke-width="10" stroke-linecap="round"/>
    <path d="M44 -20 L38 20" stroke="#fb7185" stroke-width="10" stroke-linecap="round"/>
    <path d="M60 -42 L84 4" stroke="#fb7185" stroke-width="10" stroke-linecap="round"/>
  </g>

  <g transform="translate(360 485)">
    <circle cx="22" cy="-44" r="13" fill="#0ea5e9"/>
    <path d="M8 -30 L32 -16 L44 -32" stroke="#0ea5e9" stroke-width="8" stroke-linecap="round"/>
    <path d="M32 -16 L28 16" stroke="#0ea5e9" stroke-width="8" stroke-linecap="round"/>
    <path d="M44 -32 L62 6" stroke="#0ea5e9" stroke-width="8" stroke-linecap="round"/>
  </g>

  <g transform="translate(520 480)">
    <circle cx="26" cy="-50" r="15" fill="#f97316"/>
    <path d="M10 -34 L38 -20 L54 -38" stroke="#f97316" stroke-width="10" stroke-linecap="round"/>
    <path d="M38 -20 L34 18" stroke="#f97316" stroke-width="10" stroke-linecap="round"/>
    <path d="M54 -38 L78 4" stroke="#f97316" stroke-width="10" stroke-linecap="round"/>
  </g>

  <g transform="translate(700 488)">
    <circle cx="24" cy="-44" r="13" fill="#22c55e"/>
    <path d="M8 -28 L32 -14 L44 -30" stroke="#22c55e" stroke-width="8" stroke-linecap="round"/>
    <path d="M32 -14 L30 16" stroke="#22c55e" stroke-width="8" stroke-linecap="round"/>
    <path d="M44 -30 L62 6" stroke="#22c55e" stroke-width="8" stroke-linecap="round"/>
  </g>

  <rect x="160" y="600" width="880" height="12" rx="6" fill="#fef3c7"/>
  <text x="600" y="660" text-anchor="middle" font-family="Arial, sans-serif" font-size="34" font-weight="700" fill="#14532d">Health First Relay Marathon India</text>
</svg>

