<svg xmlns="http://www.w3.org/2000/svg" viewBox="0 0 1200 700" role="img" aria-labelledby="title desc">
  <title id="title">Kids relay run</title>
  <desc id="desc">Illustration of children running joyfully in a relay community event.</desc>
  <defs>
    <linearGradient id="sky" x1="0" y1="0" x2="0" y2="1">
      <stop offset="0%" stop-color="#dbeafe"/>
      <stop offset="70%" stop-color="#dcfce7"/>
      <stop offset="100%" stop-color="#bbf7d0"/>
    </linearGradient>
  </defs>
  <rect width="1200" height="700" fill="url(#sky)"/>
  <circle cx="160" cy="120" r="52" fill="#fbbf24"/>
  <path d="M0 520 C240 470 400 560 620 515 C860 470 980 550 1200 500 L1200 700 L0 700 Z" fill="#22c55e"/>
  <path d="M0 575 C220 540 420 610 620 580 C860 540 1010 620 1200 560 L1200 700 L0 700 Z" fill="#15803d" opacity="0.85"/>

  <g transform="translate(260 490)">
    <circle cx="20" cy="-40" r="12" fill="#a855f7"/>
    <path d="M8 -26 L30 -14 L44 -30" stroke="#a855f7" stroke-width="8" stroke-linecap="round"/>
    <path d="M30 -14 L26 14" stroke="#a855f7" stroke-width="8" stroke-linecap="round"/>
    <path d="M44 -30 L62 4" stroke="#a855f7" stroke-width="8" stroke-linecap="round"/>
  </g>

  <g transform="translate(420 500)">
    <circle cx="18" cy="-36" r="11" fill="#ef4444"/>
    <path d="M6 -24 L28 -12 L40 -28" stroke="#ef4444" stroke-width="7" stroke-linecap="round"/>
    <path d="M28 -12 L24 12" stroke="#ef4444" stroke-width="7" stroke-linecap="round"/>
    <path d="M40 -28 L56 4" stroke="#ef4444" stroke-width="7" stroke-linecap="round"/>
  </g>

  <g transform="translate(580 492)">
    <circle cx="20" cy="-40" r="12" fill="#2563eb"/>
    <path d="M8 -26 L30 -14 L44 -30" stroke="#2563eb" stroke-width="8" stroke-linecap="round"/>
    <path d="M30 -14 L28 14" stroke="#2563eb" stroke-width="8" stroke-linecap="round"/>
    <path d="M44 -30 L62 4" stroke="#2563eb" stroke-width="8" stroke-linecap="round"/>
  </g>

  <g transform="translate(760 500)">
    <circle cx="18" cy="-36" r="11" fill="#f97316"/>
    <path d="M6 -24 L28 -12 L40 -28" stroke="#f97316" stroke-width="7" stroke-linecap="round"/>
    <path d="M28 -12 L26 12" stroke="#f97316" stroke-width="7" stroke-linecap="round"/>
    <path d="M40 -28 L56 4" stroke="#f97316" stroke-width="7" stroke-linecap="round"/>
  </g>

  <text x="600" y="655" text-anchor="middle" font-family="Arial, sans-serif" font-size="32" font-weight="700" fill="#064e3b">Children Running Joyfully in a Community Relay</text>
</svg>

